<svg width="580" height="400" xmlns="http://www.w3.org/2000/svg">
 <!-- Created with Method Draw - http://github.com/duopixel/Method-Draw/ -->

 <g>
  <title>background</title>
  <rect fill="none" id="canvas_background" height="402" width="582" y="-1" x="-1"/>
  <g display="none" overflow="visible" y="0" x="0" height="100%" width="100%" id="canvasGrid">
   <rect fill="url(#gridpattern)" stroke-width="0" y="0" x="0" height="100%" width="100%"/>
  </g>
 </g>
 <g>
  <title>Layer 1</title>
  <g transform="matrix(0.384038, 0, 0, 0.262959, -28.1045, 0.687204)" id="svg_5">
   <path stroke="#000" fill="#ff5f0f" stroke-width="0" id="svg_6" d="m270.436005,853.937988c8.800995,5.398987 19.100983,-4.301025 14,-13.301025c-13.399017,-23.799988 -21,-51.198975 -21,-80.5c0,-62 34.300995,-111.599976 84.800995,-144.599976c44.699005,-29.200012 32.5,-66.900024 39.899017,-111.800018c4.399994,-26.600983 21,-50.799988 34.899994,-66.899994c5.600006,-6.5 16.100006,-3.398987 17.5,5c8.200012,50.399994 73.599976,136.200012 111.299988,192.200012c43.400024,64.599976 40.600037,121.5 40.299988,125.799988c0,0.200012 0,0.400024 0,0.601013c-0.099976,29.099976 -7.699951,56.398987 -21,80c-5.099976,9 5.200012,18.799988 14,13.299988c69.400024,-42.900024 119.400024,-113.700012 136.101013,-193.601013c13.299988,-63.599976 5.799988,-129.299988 -15.700012,-190.100006c-12.699951,-35.899994 -30.199951,-70 -51.5,-101.599976c-68.899963,-102.5 -188.799988,-259.601021 -203.199982,-351.500002c-2.699982,-16.899999 -24.100006,-22.899999 -35.199982,-9.899999c-0.200012,0.2 -20.600006,22.7 -33.399017,47.59999c-10.899994,21.300003 -19.800995,43.599998 -24.899994,66.900009c-9.600006,43.900002 -7.899994,90.900002 3.100006,134.399986c3.600983,14.199997 8.199982,28.099991 13.800995,41.599991c5.398987,13 11.199005,26.100006 12.199005,40.300018c1.600983,26.5 -22.399017,49.399994 -48.399017,49.399994c-23.299988,0 -42.600983,-14 -47.600983,-40.399994c-1.300018,-6.800018 -8.899017,-10.399017 -14.899017,-6.899017c-88.499985,52.100006 -147.899979,148.399017 -147.899979,258.500031c0.196976,108 57.196976,202.699036 142.796982,255.5z"/>
  </g>
  <g transform="matrix(0.155856, 0, 0, 0.155856, 0, 0)" id="svg_7"/>
  <g transform="matrix(0.155856, 0, 0, 0.155856, 0, 0)" id="svg_8"/>
  <g transform="matrix(0.155856, 0, 0, 0.155856, 0, 0)" id="svg_9"/>
  <g transform="matrix(0.155856, 0, 0, 0.155856, 0, 0)" id="svg_10"/>
  <g transform="matrix(0.155856, 0, 0, 0.155856, 0, 0)" id="svg_11"/>
  <g transform="matrix(0.155856, 0, 0, 0.155856, 0, 0)" id="svg_12"/>
  <g transform="matrix(0.155856, 0, 0, 0.155856, 0, 0)" id="svg_13"/>
  <g transform="matrix(0.155856, 0, 0, 0.155856, 0, 0)" id="svg_14"/>
  <g transform="matrix(0.155856, 0, 0, 0.155856, 0, 0)" id="svg_15"/>
  <g transform="matrix(0.155856, 0, 0, 0.155856, 0, 0)" id="svg_16"/>
  <g transform="matrix(0.155856, 0, 0, 0.155856, 0, 0)" id="svg_17"/>
  <g transform="matrix(0.155856, 0, 0, 0.155856, 0, 0)" id="svg_18"/>
  <g transform="matrix(0.155856, 0, 0, 0.155856, 0, 0)" id="svg_19"/>
  <g transform="matrix(0.155856, 0, 0, 0.155856, 0, 0)" id="svg_20"/>
  <g transform="matrix(0.155856, 0, 0, 0.155856, 0, 0)" id="svg_21"/>
  <g id="svg_22"/>
 </g>
</svg>